<svg id="icon-link" xmlns="http://www.w3.org/2000/svg" width="40.601" height="38.923" viewBox="0 0 40.601 38.923">
  <path id="Trazado_76" data-name="Trazado 76" d="M233.952,232.112h8.141a1.314,1.314,0,0,0,1.314-1.314V216.758c0-3.942-1.019-7.045-3.028-9.222a10.1,10.1,0,0,0-7.661-3.111,9.427,9.427,0,0,0-6.022,1.911v-.023A1.314,1.314,0,0,0,225.382,205h-8.138a1.314,1.314,0,0,0-1.312,1.373c.1,2.236,0,24.2,0,24.42a1.314,1.314,0,0,0,1.314,1.32h8.138A1.314,1.314,0,0,0,226.7,230.8V217.124a4.411,4.411,0,0,1,.173-1.493,3.207,3.207,0,0,1,2.959-2.159c.769,0,2.811,0,2.811,4.226v13.1A1.313,1.313,0,0,0,233.952,232.112Zm-4.125-21.268a5.729,5.729,0,0,0-5.392,3.794,6.472,6.472,0,0,0-.367,2.485v12.362h-5.505c.018-4.245.069-17.317.02-21.859h5.485v2.154a1.314,1.314,0,0,0,2.416.714,6.749,6.749,0,0,1,6.234-3.443c5.123,0,8.061,3.538,8.061,9.706v12.727h-5.513V217.7a8.358,8.358,0,0,0-1.185-4.743A4.892,4.892,0,0,0,229.827,210.845Z" transform="translate(-202.805 -193.189)" fill="#5d6071"/>
  <path id="Trazado_77" data-name="Trazado 77" d="M147.781,141.518A5.528,5.528,0,0,0,141.916,136c-3.428,0-5.916,2.332-5.916,5.545a5.5,5.5,0,0,0,5.809,5.545h.055c3.429,0,5.918-2.332,5.918-5.545C147.781,141.536,147.781,141.527,147.781,141.518Zm-5.918,2.945h-.055a2.9,2.9,0,0,1-3.181-2.918c0-1.745,1.322-2.918,3.288-2.918a2.914,2.914,0,0,1,3.238,2.932C145.147,143.3,143.827,144.463,141.863,144.463Z" transform="translate(-136 -136)" fill="#5d6071"/>
  <path id="Trazado_78" data-name="Trazado 78" d="M140.233,207.922a1.314,1.314,0,0,0-1.314,1.314v24.486a1.314,1.314,0,0,0,1.314,1.314h8.143a1.314,1.314,0,0,0,1.314-1.314V209.236a1.314,1.314,0,0,0-1.314-1.314Zm6.83,24.486h-5.516V210.549h5.516Z" transform="translate(-138.44 -196.112)" fill="#5d6071"/>
</svg>
