<svg id="icon-insta" xmlns="http://www.w3.org/2000/svg" width="35" height="35" viewBox="0 0 35 35">
  <g id="Grupo_24" data-name="Grupo 24">
    <path id="Trazado_91" data-name="Trazado 91" d="M128.741,102.125H110.509a8.393,8.393,0,0,0-8.384,8.384v18.232a8.393,8.393,0,0,0,8.384,8.384h18.232a8.393,8.393,0,0,0,8.384-8.384V110.509A8.393,8.393,0,0,0,128.741,102.125Zm6.176,26.616a6.183,6.183,0,0,1-6.176,6.176H110.509a6.183,6.183,0,0,1-6.176-6.176V110.509a6.183,6.183,0,0,1,6.176-6.176h18.232a6.183,6.183,0,0,1,6.176,6.176Z" transform="translate(-102.125 -102.125)" fill="#5d6071"/>
    <path id="Trazado_92" data-name="Trazado 92" d="M256.083,139.728a1.484,1.484,0,1,0,1.484,1.484A1.486,1.486,0,0,0,256.083,139.728Z" transform="translate(-228.886 -133.387)" fill="#5d6071"/>
    <path id="Trazado_93" data-name="Trazado 93" d="M164.041,154.57a9.471,9.471,0,1,0,9.472,9.471A9.482,9.482,0,0,0,164.041,154.57Zm0,16.506a7.034,7.034,0,1,1,7.033-7.035A7.042,7.042,0,0,1,164.041,171.076Z" transform="translate(-146.541 -146.541)" fill="#5d6071"/>
  </g>
</svg>
