<svg id="icon-fa" xmlns="http://www.w3.org/2000/svg" width="21.55" height="43.35" viewBox="0 0 21.55 43.35">
  <path id="Trazado_79" data-name="Trazado 79" d="M195.738,167.35h8.455a1.314,1.314,0,0,0,1.314-1.314V147H209.9a1.314,1.314,0,0,0,1.307-1.179l.741-7.187a1.314,1.314,0,0,0-1.307-1.448h-5.133v-2.911c0-.6.19-.646.481-.646h4.545a1.314,1.314,0,0,0,1.314-1.314v-6.979a1.314,1.314,0,0,0-1.308-1.314L204.269,124c-4.393,0-6.737,1.933-7.93,3.554a10.814,10.814,0,0,0-1.915,6.3v3.339h-2.708A1.314,1.314,0,0,0,190.4,138.5v7.187A1.314,1.314,0,0,0,191.717,147h2.708v19.032A1.314,1.314,0,0,0,195.738,167.35Zm-2.708-22.973v-4.56h2.708a1.314,1.314,0,0,0,1.314-1.314V133.85a8.333,8.333,0,0,1,1.4-4.739c1.213-1.648,3.169-2.484,5.809-2.484l4.955.02V131h-3.232a3.022,3.022,0,0,0-3.108,3.274V138.5a1.314,1.314,0,0,0,1.314,1.314h4.991l-.47,4.56h-4.521a1.314,1.314,0,0,0-1.314,1.314v19.032h-5.828V145.69a1.314,1.314,0,0,0-1.314-1.314Z" transform="translate(-190.403 -124)" fill="#5d6071"/>
</svg>
