<svg id="icon-tw" xmlns="http://www.w3.org/2000/svg" width="42.477" height="35" viewBox="0 0 42.477 35">
  <path id="Trazado_72" data-name="Trazado 72" d="M178.26,164.31a1.287,1.287,0,0,0-1.591-1.892l-.1.043a9.44,9.44,0,0,0,.745-1.718,1.287,1.287,0,0,0-1.883-1.5,15.02,15.02,0,0,1-4.139,1.689,9.48,9.48,0,0,0-15.854,7.007q0,.224.01.447a22.025,22.025,0,0,1-14.387-7.946,1.287,1.287,0,0,0-2.11.165,9.5,9.5,0,0,0-.148,9.269,1.287,1.287,0,0,0-1.2,1.284v.1a9.5,9.5,0,0,0,3.317,7.2,1.287,1.287,0,0,0-.385,1.367,9.462,9.462,0,0,0,5.513,5.907,15.08,15.08,0,0,1-6.808,1.6,15.655,15.655,0,0,1-1.8-.1,1.287,1.287,0,0,0-.844,2.362,24.485,24.485,0,0,0,13.244,3.882,23.572,23.572,0,0,0,18.259-8.026,25.4,25.4,0,0,0,6.321-16.555c0-.147,0-.29,0-.431A17.772,17.772,0,0,0,178.26,164.31Zm-5.909,2.479a1.287,1.287,0,0,0-.533,1.107c.016.317.023.642.023.994a22.793,22.793,0,0,1-5.678,14.852,21.062,21.062,0,0,1-16.328,7.154,21.931,21.931,0,0,1-7.385-1.277,17.549,17.549,0,0,0,7.748-3.491,1.287,1.287,0,0,0-.77-2.3,6.9,6.9,0,0,1-5.555-2.982,9.571,9.571,0,0,0,1.916-.314,1.287,1.287,0,0,0-.081-2.5,6.924,6.924,0,0,1-5.264-4.868,9.52,9.52,0,0,0,2.111.311,1.287,1.287,0,0,0,.757-2.357,6.916,6.916,0,0,1-2.849-7.475,24.585,24.585,0,0,0,16.411,7.452,1.287,1.287,0,0,0,1.318-1.578,6.907,6.907,0,0,1,11.76-6.292,1.288,1.288,0,0,0,1.184.381q.732-.143,1.446-.347a6.95,6.95,0,0,1-.756.523,1.287,1.287,0,0,0,.811,2.383q.315-.037.627-.085Q172.823,166.448,172.352,166.788Z" transform="translate(-136 -158.47)" fill="#5d6071"/>
</svg>
