<svg id="icon-you" xmlns="http://www.w3.org/2000/svg" width="43.1" height="35" viewBox="0 0 43.1 35">
  <path id="Trazado_86" data-name="Trazado 86" d="M159.738,157.734c-.046-.366-.488-3.624-1.925-5.282a6.46,6.46,0,0,0-4.608-2.34c-.082-.009-.157-.017-.225-.026l-.055-.006c-5.668-.467-14.225-.472-14.311-.472h-.019c-.086,0-8.643.005-14.31.472l-.055.006c-.068.009-.143.017-.225.026a6.46,6.46,0,0,0-4.608,2.34c-1.436,1.657-1.879,4.915-1.925,5.282l0,.022c-.017.155-.415,3.843-.415,7.6v3.492c0,3.76.4,7.447.415,7.6l0,.021c.046.366.488,3.623,1.926,5.279a6.886,6.886,0,0,0,4.683,2.3c.19.026.355.048.467.072q.057.012.116.019c3.27.356,13.5.465,13.943.47.086,0,8.65-.022,14.317-.483l.062-.007c.07-.009.148-.018.232-.027a6.476,6.476,0,0,0,4.594-2.341c1.436-1.655,1.879-4.911,1.925-5.277l0-.022c.017-.155.415-3.843.415-7.6v-3.492c0-3.759-.4-7.447-.415-7.6Zm-2.051,11.115c0,3.505-.373,7.066-.4,7.29a9.293,9.293,0,0,1-1.3,3.839l-.014.016a4.111,4.111,0,0,1-3.019,1.491l-.256.03c-5.575.451-14.018.472-14.089.473-.1,0-10.432-.111-13.65-.45-.178-.035-.37-.061-.572-.089a4.556,4.556,0,0,1-3.167-1.457l-.014-.016a9.065,9.065,0,0,1-1.295-3.839c-.024-.229-.4-3.785-.4-7.289v-3.492c0-3.506.374-7.068.4-7.289a9.315,9.315,0,0,1,1.3-3.844l.013-.015a4.1,4.1,0,0,1,3.025-1.489l.248-.028c5.572-.457,14.008-.462,14.093-.462h.019c.085,0,8.521.005,14.094.462l.248.028a4.1,4.1,0,0,1,3.025,1.489l.013.016a9.087,9.087,0,0,1,1.3,3.844c.024.228.4,3.786.4,7.289Z" transform="translate(-117.055 -149.609)" fill="#5d6071"/>
  <path id="Trazado_87" data-name="Trazado 87" d="M231.395,207.289l-13.523-8.078a1.314,1.314,0,0,0-1.99,1.121v16.156a1.315,1.315,0,0,0,1.989,1.121l13.523-8.078a1.3,1.3,0,0,0,0-2.243Zm-12.885,6.89V202.642l9.656,5.768Z" transform="translate(-201.176 -190.91)" fill="#5d6071"/>
</svg>
