<svg id="logo" xmlns="http://www.w3.org/2000/svg" width="84.736" height="77.475" viewBox="0 0 84.736 77.475">
  <g id="Grupo_4" data-name="Grupo 4" transform="translate(0.543 0.435)">
    <g id="Grupo_3" data-name="Grupo 3" transform="translate(0)">
      <g id="Grupo_2" data-name="Grupo 2">
        <g id="Grupo_1" data-name="Grupo 1">
          <path id="Trazado_1" data-name="Trazado 1" d="M27.238,46.316a18.165,18.165,0,0,1-13.326-5.391A18.55,18.55,0,0,1,8.5,27.317,18.753,18.753,0,0,1,14,13.6,18.14,18.14,0,0,1,27.26,8.1a19.333,19.333,0,0,1,11.826,3.869,3.479,3.479,0,0,1,.783,4.717,6.246,6.246,0,0,1-8.043,2.152,5.908,5.908,0,0,0-.543-.239,9.655,9.655,0,0,0-3.587-.652,8.314,8.314,0,0,0-6.217,2.565,9.222,9.222,0,0,0-2.522,6.826,9.252,9.252,0,0,0,2.413,6.782,7.6,7.6,0,0,0,5.717,2.5,12.94,12.94,0,0,0,4.739-.8.631.631,0,0,0,.37-.587V29.121a3.377,3.377,0,0,1,3.348-3.413,6.982,6.982,0,0,1,6.891,7.043v5.674a3.419,3.419,0,0,1-1,2.435C37.89,44.49,33.108,46.316,27.238,46.316Z" transform="translate(-8.5 -8.1)" fill="#7e4fff"/>
        </g>
      </g>
    </g>
  </g>
  <g id="Grupo_5" data-name="Grupo 5">
    <path id="Trazado_2" data-name="Trazado 2" d="M189.821,74.4a6.438,6.438,0,0,0-5.043,2.217,8.272,8.272,0,0,0-1.978,5.674,8.076,8.076,0,0,0,1.978,5.652,6.937,6.937,0,0,0,10.087,0,9.094,9.094,0,0,0,0-11.326A6.438,6.438,0,0,0,189.821,74.4Z" transform="translate(-144.367 -59.553)" fill="none"/>
    <path id="Trazado_3" data-name="Trazado 3" d="M31.108,27.164V33.49a1.385,1.385,0,0,1-.848,1.283,14.368,14.368,0,0,1-5.282.891,8.784,8.784,0,0,1-6.565-2.8,10.179,10.179,0,0,1-2.761-7.543,10.058,10.058,0,0,1,2.891-7.587,9.57,9.57,0,0,1,7.108-2.869,11.008,11.008,0,0,1,4.087.739c.217.087.413.174.63.283a6.035,6.035,0,0,0,7.63-2,2.829,2.829,0,0,0-.652-3.891A20.211,20.211,0,0,0,25.195,6.1,18.862,18.862,0,0,0,11.63,11.578,18.527,18.527,0,0,0,6,25.273,18.22,18.22,0,0,0,11.522,38.86a18.845,18.845,0,0,0,13.63,5.391c6.043,0,10.913-1.826,14.5-5.435A2.183,2.183,0,0,0,40,38.381a13.948,13.948,0,0,1-3.522-9.565,15.106,15.106,0,0,1,.457-3.761,6.47,6.47,0,0,0-3.022-.739A2.849,2.849,0,0,0,31.108,27.164Z" transform="translate(-6 -6.1)" fill="none"/>
    <path id="Trazado_4" data-name="Trazado 4" d="M175.16,47.639a15.612,15.612,0,0,0-21.39,0,13.887,13.887,0,0,0-3.369,5.239,8.02,8.02,0,0,1,4.587,7.239v5.891a4.247,4.247,0,0,1-.913,2.63,15.707,15.707,0,0,0,21.108-.283,13.971,13.971,0,0,0,4.261-10.369A14.129,14.129,0,0,0,175.16,47.639Zm-5.652,16.043a6.937,6.937,0,0,1-10.087,0,8.177,8.177,0,0,1-1.978-5.652,8.131,8.131,0,0,1,1.978-5.674,6.844,6.844,0,0,1,10.087,0,8.272,8.272,0,0,1,1.978,5.674A8.076,8.076,0,0,1,169.508,63.682Z" transform="translate(-119.01 -35.292)" fill="#7bf4d9"/>
  </g>
  <g id="Grupo_8" data-name="Grupo 8" transform="translate(67.802 25.564)">
    <g id="Grupo_6" data-name="Grupo 6" transform="translate(0.674 32.39)">
      <path id="Trazado_5" data-name="Trazado 5" d="M325.63,272.7a4.6,4.6,0,1,0,3.283,1.348A4.46,4.46,0,0,0,325.63,272.7Z" transform="translate(-321 -272.7)" fill="#7e4fff"/>
    </g>
    <g id="Grupo_7" data-name="Grupo 7" transform="translate(0 0)">
      <path id="Trazado_6" data-name="Trazado 6" d="M324.052,123.7h-2.674a3.479,3.479,0,0,0-3.478,3.5v3.109a1.866,1.866,0,0,0,.022.348l1.3,16.325a3.489,3.489,0,0,0,6.956,0l1.348-16.3c0-.13.022-.261.022-.37v-3.087A3.516,3.516,0,0,0,324.052,123.7Z" transform="translate(-317.9 -123.7)" fill="#7e4fff"/>
    </g>
  </g>
  <g id="Grupo_10" data-name="Grupo 10" transform="translate(57.759 24.412)">
    <path id="Trazado_7" data-name="Trazado 7" d="M327.6,124.9v-3.391a3.21,3.21,0,0,0-3.3-3.109H321.2a3.21,3.21,0,0,0-3.3,3.109v3.413a1.644,1.644,0,0,0,.022.326L319.4,142.66a15.8,15.8,0,0,1,6.7-.022l1.522-17.369A2.116,2.116,0,0,1,327.6,124.9Z" transform="translate(-307.857 -118.4)" fill="none"/>
    <g id="Grupo_9" data-name="Grupo 9" transform="translate(0 24.608)">
      <path id="Trazado_8" data-name="Trazado 8" d="M295.7,251.034a2.371,2.371,0,0,0-3.348-.174,8,8,0,0,1-6.174,2.174,7.143,7.143,0,0,1-2.109-.522,6.947,6.947,0,0,1-4.63-7.043,7.2,7.2,0,0,1,2.239-5.63,7.7,7.7,0,0,1,5.348-2.022,9.483,9.483,0,0,1,3.913.891,8.009,8.009,0,0,1,.956.5,3.631,3.631,0,0,0,4.7-.978l1.8-2.348a15.757,15.757,0,0,0-5.5-3.739,14.52,14.52,0,0,0-1.543-.543l-.022.239a4.664,4.664,0,0,1-4.761,4.174,4.748,4.748,0,0,1-4.761-4.2l-.022-.2a15.178,15.178,0,0,0-5.652,3.326,14.8,14.8,0,0,0-.043,21.086,15.4,15.4,0,0,0,10.76,4.022c4.239,0,8.2-1.891,11.826-5.674Z" transform="translate(-271.7 -231.6)" fill="#7bf4d9"/>
    </g>
  </g>
  <g id="Grupo_11" data-name="Grupo 11" transform="translate(66.41 24.412)">
    <path id="Trazado_9" data-name="Trazado 9" d="M321.2,124.9v-3.391a3.21,3.21,0,0,0-3.3-3.109H314.8a3.21,3.21,0,0,0-3.3,3.109v3.413a1.653,1.653,0,0,0,.022.326L313,142.66a15.8,15.8,0,0,1,6.7-.022l1.522-17.369A2.11,2.11,0,0,1,321.2,124.9Z" transform="translate(-311.5 -118.4)" fill="none"/>
  </g>
  <g id="Grupo_12" data-name="Grupo 12" transform="translate(1.87 41.542)">
    <path id="Trazado_10" data-name="Trazado 10" d="M189.821,258.1a6.438,6.438,0,0,0-5.043,2.217,8.272,8.272,0,0,0-1.978,5.674,8.076,8.076,0,0,0,1.978,5.652,6.937,6.937,0,0,0,10.087,0,9.095,9.095,0,0,0,0-11.326A6.438,6.438,0,0,0,189.821,258.1Z" transform="translate(-146.236 -244.861)" fill="none"/>
    <path id="Trazado_11" data-name="Trazado 11" d="M55.513,229H52.6a1.5,1.5,0,0,0-1.5,1.5v18.8a1.262,1.262,0,0,0,1.261,1.261h3.761q5.445,0,8.347-2.739c1.956-1.826,2.913-4.478,2.913-7.978,0-3.478-.978-6.174-2.913-8.043S59.534,229,55.513,229Z" transform="translate(-43.166 -222.087)" fill="none"/>
    <path id="Trazado_12" data-name="Trazado 12" d="M71.163,210.83a14.2,14.2,0,0,0-2.283-2.891,14.567,14.567,0,0,0-10.7-4.239,14.5,14.5,0,0,0-10.7,4.239c-.478.478-.913.978-1.326,1.478a14.97,14.97,0,0,0-4.456-7.565c-3.391-3.087-8.239-4.652-14.565-4.652H17.317a2.718,2.718,0,0,0-2.717,2.717v30.064a2.718,2.718,0,0,0,2.717,2.717h9.434q10.141,0,15.108-4.826a16,16,0,0,0,2.652-3.413,13.946,13.946,0,0,0,2.978,4.217,14.636,14.636,0,0,0,10.7,4.217,14.566,14.566,0,0,0,10.7-4.217,14.794,14.794,0,0,0,2.109-2.609,14.437,14.437,0,0,1-1.913-7.478A14.678,14.678,0,0,1,71.163,210.83ZM35.9,222.96q-2.935,2.739-8.347,2.739H23.8a1.262,1.262,0,0,1-1.261-1.261v-18.8a1.5,1.5,0,0,1,1.5-1.5h2.913c4.022,0,7.021.935,8.956,2.826,1.956,1.869,2.913,4.565,2.913,8.043C38.838,218.46,37.86,221.134,35.9,222.96Zm27.325,1.022a6.937,6.937,0,0,1-10.087,0,9.094,9.094,0,0,1,0-11.326,6.844,6.844,0,0,1,10.087,0,8.272,8.272,0,0,1,1.978,5.674A8.076,8.076,0,0,1,63.229,223.982Z" transform="translate(-14.6 -197.2)" fill="#7e4fff"/>
  </g>
</svg>
